<svg width="1199" height="366" viewBox="0 0 1199 366" fill="none" xmlns="http://www.w3.org/2000/svg">
<path d="M417.3 291V126C417.3 107.8 422.7 93.3 433.5 82.5C444.3 71.5 459.7 66 479.7 66C486.5 66 493 66.7 499.2 68.1C505.6 69.5 511 71.7 515.4 74.7L503.1 108.6C500.5 106.8 497.6 105.4 494.4 104.4C491.2 103.4 487.8 102.9 484.2 102.9C477.4 102.9 472.1 104.9 468.3 108.9C464.7 112.7 462.9 118.5 462.9 126.3V141.3L464.1 161.4V291H417.3ZM392.4 169.2V133.2H504.3V169.2H392.4ZM623.686 291V259.5L620.686 252.6V196.2C620.686 186.2 617.586 178.4 611.386 172.8C605.386 167.2 596.086 164.4 583.486 164.4C574.886 164.4 566.386 165.8 557.986 168.6C549.786 171.2 542.786 174.8 536.986 179.4L520.186 146.7C528.986 140.5 539.586 135.7 551.986 132.3C564.386 128.9 576.986 127.2 589.786 127.2C614.386 127.2 633.486 133 647.086 144.6C660.686 156.2 667.486 174.3 667.486 198.9V291H623.686ZM574.486 293.4C561.886 293.4 551.086 291.3 542.086 287.1C533.086 282.7 526.186 276.8 521.386 269.4C516.586 262 514.186 253.7 514.186 244.5C514.186 234.9 516.486 226.5 521.086 219.3C525.886 212.1 533.386 206.5 543.586 202.5C553.786 198.3 567.086 196.2 583.486 196.2H626.386V223.5H588.586C577.586 223.5 569.986 225.3 565.786 228.9C561.786 232.5 559.786 237 559.786 242.4C559.786 248.4 562.086 253.2 566.686 256.8C571.486 260.2 577.986 261.9 586.186 261.9C593.986 261.9 600.986 260.1 607.186 256.5C613.386 252.7 617.886 247.2 620.686 240L627.886 261.6C624.486 272 618.286 279.9 609.286 285.3C600.286 290.7 588.686 293.4 574.486 293.4ZM805.242 293.4C791.042 293.4 778.842 290.4 768.642 284.4C758.442 278.4 750.642 269.3 745.242 257.1C739.842 244.7 737.142 229.1 737.142 210.3C737.142 191.3 739.942 175.7 745.542 163.5C751.342 151.3 759.342 142.2 769.542 136.2C779.742 130.2 791.642 127.2 805.242 127.2C820.442 127.2 834.042 130.6 846.042 137.4C858.242 144.2 867.842 153.8 874.842 166.2C882.042 178.6 885.642 193.3 885.642 210.3C885.642 227.1 882.042 241.7 874.842 254.1C867.842 266.5 858.242 276.2 846.042 283.2C834.042 290 820.442 293.4 805.242 293.4ZM709.842 291V68.4H756.642V162.3L753.642 210L754.542 258V291H709.842ZM797.142 255C804.942 255 811.842 253.2 817.842 249.6C824.042 246 828.942 240.9 832.542 234.3C836.342 227.5 838.242 219.5 838.242 210.3C838.242 200.9 836.342 192.9 832.542 186.3C828.942 179.7 824.042 174.6 817.842 171C811.842 167.4 804.942 165.6 797.142 165.6C789.342 165.6 782.342 167.4 776.142 171C769.942 174.6 765.042 179.7 761.442 186.3C757.842 192.9 756.042 200.9 756.042 210.3C756.042 219.5 757.842 227.5 761.442 234.3C765.042 240.9 769.942 246 776.142 249.6C782.342 253.2 789.342 255 797.142 255ZM916.971 291V129.6H961.671V175.2L955.371 162C960.171 150.6 967.871 142 978.471 136.2C989.071 130.2 1001.97 127.2 1017.17 127.2V170.4C1015.17 170.2 1013.37 170.1 1011.77 170.1C1010.17 169.9 1008.47 169.8 1006.67 169.8C993.871 169.8 983.471 173.5 975.471 180.9C967.671 188.1 963.771 199.4 963.771 214.8V291H916.971ZM1133.45 291V259.5L1130.45 252.6V196.2C1130.45 186.2 1127.35 178.4 1121.15 172.8C1115.15 167.2 1105.85 164.4 1093.25 164.4C1084.65 164.4 1076.15 165.8 1067.75 168.6C1059.55 171.2 1052.55 174.8 1046.75 179.4L1029.95 146.7C1038.75 140.5 1049.35 135.7 1061.75 132.3C1074.15 128.9 1086.75 127.2 1099.55 127.2C1124.15 127.2 1143.25 133 1156.85 144.6C1170.45 156.2 1177.25 174.3 1177.25 198.9V291H1133.45ZM1084.25 293.4C1071.65 293.4 1060.85 291.3 1051.85 287.1C1042.85 282.7 1035.95 276.8 1031.15 269.4C1026.35 262 1023.95 253.7 1023.95 244.5C1023.95 234.9 1026.25 226.5 1030.85 219.3C1035.65 212.1 1043.15 206.5 1053.35 202.5C1063.55 198.3 1076.85 196.2 1093.25 196.2H1136.15V223.5H1098.35C1087.35 223.5 1079.75 225.3 1075.55 228.9C1071.55 232.5 1069.55 237 1069.55 242.4C1069.55 248.4 1071.85 253.2 1076.45 256.8C1081.25 260.2 1087.75 261.9 1095.95 261.9C1103.75 261.9 1110.75 260.1 1116.95 256.5C1123.15 252.7 1127.65 247.2 1130.45 240L1137.65 261.6C1134.25 272 1128.05 279.9 1119.05 285.3C1110.05 290.7 1098.45 293.4 1084.25 293.4Z" fill="black"/>
<path d="M0 36.8921C0 28.2669 0 20.2768 0 12C90.3288 12 179.996 12 270 12C270 63.2582 270 114.21 270 166.728C263.517 166.728 257.261 166.698 251.006 166.733C223.93 166.883 197.374 164.139 173.982 149C149.082 132.883 140.463 108.856 143.024 80.1889C144.74 60.9897 152.938 45.1268 168.159 32.9877C169.373 32.0196 169.417 29.5847 170.005 27.8314C168.227 27.3185 166.27 26.0403 164.699 26.4082C143.506 31.3687 127.92 43.439 118.458 63.2582C101.123 99.5698 109.712 143.996 139.083 168.948C153.613 181.292 170.726 186.058 189.517 185.95C208.757 185.839 227.998 185.925 247.595 185.925C247.595 194.052 247.595 201.783 247.595 209.992C228.473 209.992 209.655 209.974 190.837 209.999C179.469 210.014 168.491 211.892 159.007 218.566C139.605 232.221 130.265 251.622 129.497 274.818C128.741 297.668 129.332 320.564 129.332 343.439C129.332 345.519 129.332 347.599 129.332 350C86.2118 350 43.5282 350 0 350C0 245.745 0 141.636 0 36.8921Z" fill="black"/>
</svg>
